<?xml version="1.0" encoding="UTF-8"?>
<svg xmlns="http://www.w3.org/2000/svg" xmlns:xlink="http://www.w3.org/1999/xlink" xmlns:svgjs="http://svgjs.com/svgjs" version="1.1" width="512" height="512" x="0" y="0" viewBox="0 0 47 47" style="enable-background:new 0 0 512 512" xml:space="preserve" class="">
  <rect width="47" height="47" fill="#ffffff" shape="square"/>
  <g transform="matrix(0.7,0,0,0.7,7.0501500427722945,7.050000000000001)">
    <path d="M20.71 15.82a14.155 14.155 0 0 1 2.518-6.847C22.1 3.848 17.527 0 12.07 0 5.77 0 .643 5.127.643 11.429c0 5.484 3.884 10.075 9.046 11.174A17.133 17.133 0 0 1 20.71 15.82zM7.499 14.149c0-.416.319-.737.736-.737h2.345v-.548l-.321-.548H8.234c-.417 0-.736-.321-.736-.737s.319-.737.736-.737h1.153l-2.494-4.1c-.132-.227-.264-.51-.264-.775 0-1.039.964-1.379 1.624-1.379.794 0 1.153.624 1.286.888l2.532 4.819 2.53-4.819c.135-.264.492-.888 1.284-.888.662 0 1.625.341 1.625 1.379 0 .265-.132.548-.263.774l-2.495 4.101h1.152c.415 0 .736.321.736.737s-.321.737-.736.737h-2.021l-.321.548v.548h2.343c.415 0 .736.321.736.737s-.321.737-.736.737h-2.343v1.87c0 .907-.549 1.512-1.491 1.512-.945 0-1.492-.605-1.492-1.512v-1.87H8.234a.724.724 0 0 1-.735-.737zM34.929 5.714c-5.769 0-10.541 4.302-11.309 9.864 2.181.016 4.259.447 6.175 1.207.127-.292.389-.475.797-.475h.396c-.396-.567-.566-1.285-.566-2.022 0-2.342 2.078-3.986 4.742-3.986 3.31 0 4.914 1.776 4.914 3.25 0 .851-.586 1.323-1.418 1.323-1.662 0-.643-2.305-3.193-2.305-1.114 0-2.172.662-2.172 1.889 0 .643.32 1.285.623 1.852h2.06c.774 0 1.172.284 1.172.907s-.397.906-1.172.906h-1.494a1.2 1.2 0 0 1 .097.454c0 .305-.076.607-.194.902.618.51 1.188 1.076 1.729 1.667.524.106.991.228 1.545.228.319 0 1.098-.208 1.397-.208.698 0 1.096.529 1.096 1.208 0 1.066-.954 1.529-1.937 1.593a17.289 17.289 0 0 1 1.596 3.49c3.861-1.835 6.545-5.763 6.545-10.317-.002-6.3-5.129-11.427-11.429-11.427zM24.257 34.076v4.676c1.415-.094 2.905-.755 2.905-2.314 0-1.607-1.633-2.079-2.905-2.362zM20.193 28.479c0 1.183.875 1.865 2.645 2.221v-4.229c-1.608.049-2.645.992-2.645 2.008z" fill="#e28f00" data-original="#000000" class="" opacity="1"/>
    <path d="M23.5 18.429c-7.877 0-14.287 6.409-14.287 14.286S15.623 47 23.5 47c7.877 0 14.288-6.407 14.288-14.285S31.377 18.429 23.5 18.429zm.757 22.733v1.465c0 .402-.31.803-.711.803-.401 0-.708-.4-.708-.803v-1.465c-3.99-.094-5.976-2.48-5.976-4.348 0-.942.566-1.486 1.464-1.486 2.645 0 .589 3.26 4.512 3.425v-4.937c-3.498-.637-5.62-2.172-5.62-4.795 0-3.211 2.668-4.865 5.62-4.959v-1.258c0-.403.307-.804.708-.804.401 0 .711.401.711.804v1.258c1.839.049 5.618 1.203 5.618 3.52 0 .921-.686 1.462-1.488 1.462-1.535 0-1.514-2.524-4.129-2.573v4.487c3.118.662 5.879 1.582 5.879 5.222 0 3.164-2.364 4.771-5.88 4.982z" fill="#e28f00" data-original="#000000" class="" opacity="1"/>
  </g>
</svg>
